<svg xmlns="http://www.w3.org/2000/svg" enable-background="new 0 0 16 16" viewBox="0 0 16 16" id="compass"><path d="M3.948,12.053l2.251-5.854l5.853-2.252L9.801,9.801L3.948,12.053z M6.973,6.973l-1.284,3.339l3.339-1.284l1.284-3.339    L6.973,6.973z"></path><circle cx="8" cy="8" r=".492" transform="rotate(-45.001 8 8)"></circle><path d="M8,14.997c-1.793,0-3.585-0.682-4.95-2.047c-2.729-2.729-2.729-7.17,0-9.899s7.17-2.729,9.9,0    c2.729,2.729,2.729,7.17,0,9.899l0,0C11.585,14.314,9.793,14.997,8,14.997z M8,2.003c-1.537,0-3.073,0.584-4.243,1.754    c-2.339,2.339-2.339,6.146,0,8.485c2.34,2.339,6.146,2.338,8.486,0c2.339-2.339,2.339-6.146,0-8.485    C11.073,2.588,9.536,2.003,8,2.003z"></path></svg>