<?xml version="1.0" encoding="utf-8"?>
<!-- Generator: Adobe Illustrator 16.0.0, SVG Export Plug-In . SVG Version: 6.00 Build 0)  -->
<!DOCTYPE svg PUBLIC "-//W3C//DTD SVG 1.1//EN" "http://www.w3.org/Graphics/SVG/1.1/DTD/svg11.dtd">
<svg version="1.1" id="Layer_1" xmlns="http://www.w3.org/2000/svg" xmlns:xlink="http://www.w3.org/1999/xlink" x="0px" y="0px"
	 width="400px" height="400px" viewBox="50 0 320 360" enable-background="new 0 0 400 400" xml:space="preserve">
<path fill="#1C2B39" d="M305.6,270.4H134.8c-9.2,0-16.8-6-19.2-14.801L78.4,115.2c-0.4-2-2.4-3.2-4.4-3.2H41.2
	c-5.6,0.4-10.8-4-11.2-10c-0.4-5.6,4-10.8,10-11.2c0.4,0,0.8,0,1.2,0H74c11.6,0,21.6,7.6,24.8,18.8L136,250l170-0.8L336.4,132
	c1.6-5.6,7.6-8.8,13.199-7.2c5.601,1.6,8.801,7.2,7.2,12.8l-31.6,118C322.8,264.4,314.8,270.4,305.6,270.4z"/>
<path fill="#1C2B39" d="M166.8,331.2c-22.4,0-40.8-18.4-40.8-40.8c0-22.4,18.4-40.801,40.8-40.801c22.4,0,40.8,18.4,40.8,40.801l0,0
	C207.6,313.2,189.6,331.2,166.8,331.2z M166.8,270.8c-10.8,0-19.6,8.8-19.6,19.601c0,10.8,8.8,19.6,19.6,19.6
	c10.8,0,19.6-8.8,19.6-19.6l0,0C186.4,279.6,177.6,270.8,166.8,270.8z"/>
<path fill="#1C2B39" d="M276,331.2c-22.4,0-40.8-18-40.8-40.8c0-22.4,18-40.801,40.8-40.801c22.4,0,40.8,18,40.8,40.801l0,0
	C316.8,313.2,298.4,331.2,276,331.2z M276,270.8c-10.8,0-19.6,8.8-19.6,19.601c0,10.8,8.8,19.6,19.6,19.6s19.6-8.8,19.6-19.6l0,0
	C295.6,279.6,286.8,270.8,276,270.8z"/>
</svg>
